<?xml version="1.0" encoding="UTF-8"?>
<!DOCTYPE svg PUBLIC "-//W3C//DTD SVG 1.1//EN" "http://www.w3.org/Graphics/SVG/1.1/DTD/svg11.dtd">
<svg xmlns="http://www.w3.org/2000/svg" version="1.1" width="723px" height="723px" style="shape-rendering:geometricPrecision; text-rendering:geometricPrecision; image-rendering:optimizeQuality; fill-rule:evenodd; clip-rule:evenodd" xmlns:xlink="http://www.w3.org/1999/xlink">
<g><path style="opacity:1" fill="#f9fbfb" d="M -0.5,-0.5 C 240.5,-0.5 481.5,-0.5 722.5,-0.5C 722.5,240.5 722.5,481.5 722.5,722.5C 481.5,722.5 240.5,722.5 -0.5,722.5C -0.5,481.5 -0.5,240.5 -0.5,-0.5 Z"/></g>
<g><path style="opacity:1" fill="#062c3b" d="M 422.5,63.5 C 424.898,63.7406 426.898,63.0739 428.5,61.5C 444.998,57.5965 460.664,59.7632 475.5,68C 497.317,85.7589 503.317,107.926 493.5,134.5C 493.608,135.442 493.941,136.275 494.5,137C 524.978,136.388 553.312,143.721 579.5,159C 581.037,160.11 581.703,161.61 581.5,163.5C 569.729,167.721 558.729,173.554 548.5,181C 533.96,192.706 520.96,205.873 509.5,220.5C 508.596,221.209 508.263,222.209 508.5,223.5C 514.167,223.5 519.833,223.5 525.5,223.5C 534.213,226.855 539.713,233.188 542,242.5C 543.373,254.635 541.04,265.968 535,276.5C 534.503,278.81 534.337,281.143 534.5,283.5C 547.011,283.832 556.011,289.666 561.5,301C 574.425,302.591 582.258,309.758 585,322.5C 585.495,329.205 585.495,335.872 585,342.5C 596.986,350.778 601.319,362.111 598,376.5C 594.457,390.193 585.623,397.693 571.5,399C 565.556,408.451 557.223,414.617 546.5,417.5C 534.698,419.806 522.865,419.806 511,417.5C 509.615,417.514 508.449,417.848 507.5,418.5C 500.741,425.216 492.741,429.882 483.5,432.5C 473.857,433.325 464.191,433.658 454.5,433.5C 452.485,432.076 450.152,431.41 447.5,431.5C 426.738,424.569 414.905,410.235 412,388.5C 410.13,386.781 407.963,385.781 405.5,385.5C 401.019,384.352 396.352,384.185 391.5,385C 390.584,385.278 389.918,385.778 389.5,386.5C 378.972,389.371 370.472,395.371 364,404.5C 362.162,407.037 361.329,409.871 361.5,413C 362.771,419.462 363.771,425.962 364.5,432.5C 383.888,433.029 399.555,440.696 411.5,455.5C 418.337,456.369 425.337,457.036 432.5,457.5C 447.675,461.174 458.009,470.34 463.5,485C 532.5,485.333 601.5,485.667 670.5,486C 673.728,487.563 675.895,490.063 677,493.5C 678.409,508.11 677.076,522.444 673,536.5C 664.2,557.935 652.2,577.269 637,594.5C 601.777,631.857 560.277,659.857 512.5,678.5C 510.033,678.755 508.033,679.755 506.5,681.5C 501.297,682.009 496.63,683.676 492.5,686.5C 481.696,689.102 471.03,692.102 460.5,695.5C 457.161,695.89 453.827,696.39 450.5,697C 449.944,697.383 449.611,697.883 449.5,698.5C 446.482,698.704 443.482,699.037 440.5,699.5C 433.226,700.104 426.226,701.438 419.5,703.5C 417.833,703.5 416.167,703.5 414.5,703.5C 409.586,703.362 404.919,704.028 400.5,705.5C 400.167,705.5 399.833,705.5 399.5,705.5C 373.794,705.932 348.128,705.265 322.5,703.5C 322.167,703.5 321.833,703.5 321.5,703.5C 314.749,701.678 307.749,700.678 300.5,700.5C 298.621,699.659 296.621,699.325 294.5,699.5C 292.485,698.076 290.152,697.41 287.5,697.5C 284.097,697.149 280.763,696.482 277.5,695.5C 274.855,693.69 271.855,692.69 268.5,692.5C 266.708,692.634 265.042,692.301 263.5,691.5C 256.767,688.589 249.767,686.256 242.5,684.5C 242.167,684.5 241.833,684.5 241.5,684.5C 238.691,682.103 235.358,680.77 231.5,680.5C 180.819,661.254 136.985,631.92 100,592.5C 86.5689,577.32 75.9023,560.32 68,541.5C 64.1004,531.191 62.6004,520.524 63.5,509.5C 63.6667,503.5 63.8333,497.5 64,491.5C 64.9487,489.907 66.1154,488.574 67.5,487.5C 97.9609,486.848 128.294,486.182 158.5,485.5C 187.5,485.5 216.5,485.5 245.5,485.5C 248.123,471.889 255.79,462.556 268.5,457.5C 274.213,456.117 279.88,455.117 285.5,454.5C 288.56,447.272 293.56,441.772 300.5,438C 302.927,436.409 305.593,435.575 308.5,435.5C 312.569,434.311 316.569,433.311 320.5,432.5C 321.5,432.5 322.5,432.5 323.5,432.5C 323.391,417.822 322.891,403.155 322,388.5C 321.333,386.5 320.667,384.5 320,382.5C 311.585,381.517 303.085,381.183 294.5,381.5C 295.465,402.584 286.465,417.584 267.5,426.5C 262.607,427.796 257.94,429.462 253.5,431.5C 246.167,431.5 238.833,431.5 231.5,431.5C 229.485,430.076 227.152,429.41 224.5,429.5C 216.812,426.984 210.312,422.65 205,416.5C 203.589,414.35 202.755,412.016 202.5,409.5C 196.188,410.933 189.688,411.6 183,411.5C 178.985,411.499 175.151,411.165 171.5,410.5C 168.855,408.69 165.855,407.69 162.5,407.5C 153.668,402.515 145.501,396.515 138,389.5C 130.119,377.605 129.452,365.271 136,352.5C 138.706,350.129 141.039,347.463 143,344.5C 142.632,339.198 142.132,333.865 141.5,328.5C 141.818,313.027 149.484,303.86 164.5,301C 166.985,293.349 171.985,288.182 179.5,285.5C 183.798,284.8 188.131,284.467 192.5,284.5C 194.836,282.178 197.503,280.178 200.5,278.5C 203.397,277.871 206.064,276.871 208.5,275.5C 209.376,275.631 210.043,275.298 210.5,274.5C 202.147,265.315 193.98,255.981 186,246.5C 183.858,242.03 183.191,237.363 184,232.5C 185.973,226.551 188.973,221.217 193,216.5C 204.132,203.498 217.298,193.498 232.5,186.5C 235.152,186.59 237.485,185.924 239.5,184.5C 242.408,182.395 245.742,181.395 249.5,181.5C 258.801,180.613 268.134,180.279 277.5,180.5C 278.833,180.5 280.167,180.5 281.5,180.5C 283.102,182.074 285.102,182.741 287.5,182.5C 289.936,183.871 292.603,184.871 295.5,185.5C 316.086,194.65 328.586,210.317 333,232.5C 334.318,235.941 336.818,237.275 340.5,236.5C 344.94,238.538 349.607,240.204 354.5,241.5C 356.042,242.301 357.708,242.634 359.5,242.5C 358.308,224.091 352.808,207.091 343,191.5C 339.305,186.638 335.805,181.638 332.5,176.5C 323.779,175.912 315.112,175.079 306.5,174C 299.495,171.34 293.829,167.007 289.5,161C 288.552,160.517 287.552,160.351 286.5,160.5C 282.298,161.132 278.298,162.132 274.5,163.5C 266.932,164.812 259.265,164.812 251.5,163.5C 248.855,161.69 245.855,160.69 242.5,160.5C 216.112,146.047 206.278,124.047 213,94.5C 218.162,81.996 226.329,71.8293 237.5,64C 240.632,62.2182 243.965,61.0516 247.5,60.5C 250.397,59.871 253.064,58.871 255.5,57.5C 267.339,56.4678 278.839,57.8011 290,61.5C 301.611,17.7579 329.777,0.591215 374.5,10C 394.333,16.5 407.5,29.6667 414,49.5C 414.85,54.584 416.016,59.584 417.5,64.5C 419.071,63.6906 420.738,63.3573 422.5,63.5 Z"/></g>
<g><path style="opacity:1" fill="#709490" d="M 360.5,29.5 C 354.839,29.9068 349.172,30.2401 343.5,30.5C 349.09,28.4503 354.756,28.117 360.5,29.5 Z"/></g>
<g><path style="opacity:1" fill="#587b7c" d="M 360.5,29.5 C 363.228,29.1706 365.562,29.8372 367.5,31.5C 364.933,31.2785 362.599,30.6118 360.5,29.5 Z"/></g>
<g><path style="opacity:1" fill="#f2f8f6" d="M 360.5,29.5 C 362.599,30.6118 364.933,31.2785 367.5,31.5C 382.329,37.4866 389.996,48.4866 390.5,64.5C 389.391,64.4431 388.391,64.1098 387.5,63.5C 383.038,56.3672 377.038,51.0339 369.5,47.5C 367.485,46.0762 365.152,45.4095 362.5,45.5C 361.833,45.5 361.167,45.5 360.5,45.5C 355.35,44.3493 350.016,44.1826 344.5,45C 342.347,45.0995 340.681,45.9328 339.5,47.5C 332.283,48.8544 325.783,51.8544 320,56.5C 319.209,55.255 318.709,53.9217 318.5,52.5C 318.461,49.911 319.461,47.911 321.5,46.5C 325.5,43.1667 329.167,39.5 332.5,35.5C 332.842,34.6618 333.508,34.3284 334.5,34.5C 337.397,33.871 340.064,32.871 342.5,31.5C 343.167,31.5 343.5,31.1667 343.5,30.5C 349.172,30.2401 354.839,29.9068 360.5,29.5 Z"/></g>
<g><path style="opacity:1" fill="#689a8b" d="M 342.5,31.5 C 340.064,32.871 337.397,33.871 334.5,34.5C 336.617,32.3455 339.284,31.3455 342.5,31.5 Z"/></g>
<g><path style="opacity:1" fill="#8ecaaa" d="M 332.5,35.5 C 329.167,39.5 325.5,43.1667 321.5,46.5C 324.167,41.8333 327.833,38.1667 332.5,35.5 Z"/></g>
<g><path style="opacity:1" fill="#8aeeab" d="M 360.5,45.5 C 353.401,45.3413 346.401,46.008 339.5,47.5C 340.681,45.9328 342.347,45.0995 344.5,45C 350.016,44.1826 355.35,44.3493 360.5,45.5 Z"/></g>
<g><path style="opacity:1" fill="#1fde5d" d="M 360.5,45.5 C 361.167,45.5 361.833,45.5 362.5,45.5C 364.515,46.9238 366.848,47.5905 369.5,47.5C 377.038,51.0339 383.038,56.3672 387.5,63.5C 375.744,60.6461 364.244,61.3127 353,65.5C 346.723,63.8469 340.389,62.5136 334,61.5C 331.833,61.6667 329.667,61.8333 327.5,62C 324.527,65.3075 321.194,67.1408 317.5,67.5C 317.167,64.8333 316.833,62.1667 316.5,59.5C 316.41,56.8478 317.076,54.5145 318.5,52.5C 318.709,53.9217 319.209,55.255 320,56.5C 325.783,51.8544 332.283,48.8544 339.5,47.5C 346.401,46.008 353.401,45.3413 360.5,45.5 Z"/></g>
<g><path style="opacity:1" fill="#a1f1bb" d="M 362.5,45.5 C 365.152,45.4095 367.485,46.0762 369.5,47.5C 366.848,47.5905 364.515,46.9238 362.5,45.5 Z"/></g>
<g><path style="opacity:1" fill="#778c94" d="M 255.5,57.5 C 253.064,58.871 250.397,59.871 247.5,60.5C 249.617,58.3455 252.284,57.3455 255.5,57.5 Z"/></g>
<g><path style="opacity:1" fill="#01712d" d="M 387.5,63.5 C 384.257,64.9707 380.757,65.9707 377,66.5C 375.146,68.0228 373.646,69.8562 372.5,72C 357.262,78.7619 341.262,81.4286 324.5,80C 321.256,76.3445 318.922,72.1779 317.5,67.5C 321.194,67.1408 324.527,65.3075 327.5,62C 329.667,61.8333 331.833,61.6667 334,61.5C 340.389,62.5136 346.723,63.8469 353,65.5C 364.244,61.3127 375.744,60.6461 387.5,63.5 Z"/></g>
<g><path style="opacity:1" fill="#647b85" d="M 428.5,61.5 C 426.898,63.0739 424.898,63.7406 422.5,63.5C 424.102,61.9261 426.102,61.2594 428.5,61.5 Z"/></g>
<g><path style="opacity:1" fill="#1b4743" d="M 316.5,59.5 C 316.833,62.1667 317.167,64.8333 317.5,67.5C 318.922,72.1779 321.256,76.3445 324.5,80C 341.262,81.4286 357.262,78.7619 372.5,72C 373.646,69.8562 375.146,68.0228 377,66.5C 380.757,65.9707 384.257,64.9707 387.5,63.5C 388.391,64.1098 389.391,64.4431 390.5,64.5C 390.229,66.3117 389.562,67.9783 388.5,69.5C 382.241,73.125 375.574,75.9583 368.5,78C 355.269,79.5087 342.103,81.6754 329,84.5C 325.396,85.0126 322.396,84.0126 320,81.5C 317.158,75.9738 315.324,70.1405 314.5,64C 314.569,62.0145 315.235,60.5145 316.5,59.5 Z"/></g>
<g><path style="opacity:1" fill="#719190" d="M 274.5,78.5 C 267.209,77.8503 260.209,78.8503 253.5,81.5C 254.975,79.5905 256.975,78.4238 259.5,78C 264.684,77.1837 269.684,77.3503 274.5,78.5 Z"/></g>
<g><path style="opacity:1" fill="#eef6f2" d="M 274.5,78.5 C 284.734,81.7336 291.734,88.4003 295.5,98.5C 295.44,99.0431 295.107,99.3764 294.5,99.5C 290.127,96.7719 285.794,94.1052 281.5,91.5C 279.485,90.0762 277.152,89.4095 274.5,89.5C 273.833,89.5 273.167,89.5 272.5,89.5C 266.601,87.8856 260.935,88.5523 255.5,91.5C 246.51,94.3244 240.677,100.324 238,109.5C 237.333,112.167 236.667,114.833 236,117.5C 235.79,115.942 235.29,114.609 234.5,113.5C 233.751,106.779 234.918,100.446 238,94.5C 240.98,90.6858 244.146,87.0191 247.5,83.5C 249.173,81.9137 251.173,81.2471 253.5,81.5C 260.209,78.8503 267.209,77.8503 274.5,78.5 Z"/></g>
<g><path style="opacity:1" fill="#567e7b" d="M 437.5,81.5 C 439.641,80.8367 441.975,80.5034 444.5,80.5C 448.447,80.3629 452.114,81.0296 455.5,82.5C 449.529,81.7588 443.529,81.4255 437.5,81.5 Z"/></g>
<g><path style="opacity:1" fill="#72a093" d="M 437.5,81.5 C 435.898,83.0739 433.898,83.7406 431.5,83.5C 433.102,81.9261 435.102,81.2594 437.5,81.5 Z"/></g>
<g><path style="opacity:1" fill="#eff7f3" d="M 437.5,81.5 C 443.529,81.4255 449.529,81.7588 455.5,82.5C 472.544,92.0993 477.21,105.933 469.5,124C 469.164,125.03 468.497,125.53 467.5,125.5C 467.568,121.43 466.568,117.763 464.5,114.5C 462.918,102.081 455.918,94.5809 443.5,92C 435.737,90.3859 428.737,91.8859 422.5,96.5C 421.614,95.675 421.281,94.675 421.5,93.5C 423.833,89.1667 427.167,85.8333 431.5,83.5C 433.898,83.7406 435.898,83.0739 437.5,81.5 Z"/></g>
<g><path style="opacity:1" fill="#1bdf5b" d="M 272.5,89.5 C 273.167,89.5 273.833,89.5 274.5,89.5C 276.515,90.9238 278.848,91.5905 281.5,91.5C 285.794,94.1052 290.127,96.7719 294.5,99.5C 295.107,99.3764 295.44,99.0431 295.5,98.5C 297.47,102.439 299.47,106.439 301.5,110.5C 302.298,110.043 302.631,109.376 302.5,108.5C 305.814,109.022 309.147,108.522 312.5,107C 321.128,105.299 329.128,106.633 336.5,111C 341.7,115.944 346.033,121.444 349.5,127.5C 349.107,129.284 348.441,130.95 347.5,132.5C 346.833,132.5 346.5,132.833 346.5,133.5C 340.447,136.593 334.447,139.593 328.5,142.5C 316.996,143.913 307.662,140.08 300.5,131C 299.552,130.517 298.552,130.351 297.5,130.5C 296.833,127.167 296.167,123.833 295.5,120.5C 292.044,121.27 289.377,123.27 287.5,126.5C 277.66,131.905 266.993,133.738 255.5,132C 248.429,128.738 241.762,124.905 235.5,120.5C 234.781,118.236 234.448,115.903 234.5,113.5C 235.29,114.609 235.79,115.942 236,117.5C 236.667,114.833 237.333,112.167 238,109.5C 240.677,100.324 246.51,94.3244 255.5,91.5C 261.045,89.9785 266.712,89.3118 272.5,89.5 Z"/></g>
<g><path style="opacity:1" fill="#9df0b7" d="M 274.5,89.5 C 277.152,89.4095 279.485,90.0762 281.5,91.5C 278.848,91.5905 276.515,90.9238 274.5,89.5 Z"/></g>
<g><path style="opacity:1" fill="#86eda6" d="M 272.5,89.5 C 266.712,89.3118 261.045,89.9785 255.5,91.5C 260.935,88.5523 266.601,87.8856 272.5,89.5 Z"/></g>
<g><path style="opacity:1" fill="#86a3a0" d="M 396.5,93.5 C 390.188,92.266 383.854,92.266 377.5,93.5C 377.918,92.7784 378.584,92.2784 379.5,92C 384.833,91.3333 390.167,91.3333 395.5,92C 396.056,92.3826 396.389,92.8826 396.5,93.5 Z"/></g>
<g><path style="opacity:1" fill="#edf4f1" d="M 396.5,93.5 C 402.617,97.0424 406.284,102.376 407.5,109.5C 402.952,107.893 398.619,105.726 394.5,103C 383.04,99.9177 374.54,103.418 369,113.5C 368.768,112.263 368.268,111.263 367.5,110.5C 366.994,102.504 370.328,96.8371 377.5,93.5C 383.854,92.266 390.188,92.266 396.5,93.5 Z"/></g>
<g><path style="opacity:1" fill="#1edf5d" d="M 464.5,114.5 C 464.586,115.496 464.252,116.329 463.5,117C 459.423,118.6 455.756,120.766 452.5,123.5C 447.012,125.448 441.345,125.948 435.5,125C 430.27,122.894 425.603,120.061 421.5,116.5C 419.89,109.302 419.223,101.968 419.5,94.5C 419.842,93.6618 420.508,93.3284 421.5,93.5C 421.281,94.675 421.614,95.675 422.5,96.5C 428.737,91.8859 435.737,90.3859 443.5,92C 455.918,94.5809 462.918,102.081 464.5,114.5 Z"/></g>
<g><path style="opacity:1" fill="#678c88" d="M 331.5,95.5 C 325.464,95.3599 319.464,95.6932 313.5,96.5C 316.695,94.9704 320.195,94.3037 324,94.5C 326.69,94.5029 329.19,94.8362 331.5,95.5 Z"/></g>
<g><path style="opacity:1" fill="#edf6f2" d="M 331.5,95.5 C 341.661,98.8359 347.828,105.836 350,116.5C 350.81,120.358 350.643,124.024 349.5,127.5C 346.033,121.444 341.7,115.944 336.5,111C 329.128,106.633 321.128,105.299 312.5,107C 309.147,108.522 305.814,109.022 302.5,108.5C 304.131,102.539 307.798,98.5392 313.5,96.5C 319.464,95.6932 325.464,95.3599 331.5,95.5 Z"/></g>
<g><path style="opacity:1" fill="#194641" d="M 418.5,98.5 C 418.254,104.559 418.587,110.559 419.5,116.5C 419.5,117.167 419.167,117.5 418.5,117.5C 416.218,114.476 415.218,110.976 415.5,107C 415.594,104.625 415.928,102.291 416.5,100C 416.836,98.9701 417.503,98.4701 418.5,98.5 Z"/></g>
<g><path style="opacity:1" fill="#0a8f37" d="M 407.5,109.5 C 409.627,124.347 403.461,132.347 389,133.5C 387.989,132.944 387.156,132.278 386.5,131.5C 384.369,130.686 382.036,130.186 379.5,130C 377.205,125.866 373.871,123.033 369.5,121.5C 368.939,118.538 367.939,115.705 366.5,113C 366.743,112.098 367.077,111.265 367.5,110.5C 368.268,111.263 368.768,112.263 369,113.5C 374.54,103.418 383.04,99.9177 394.5,103C 398.619,105.726 402.952,107.893 407.5,109.5 Z"/></g>
<g><path style="opacity:1" fill="#18bd55" d="M 419.5,94.5 C 419.223,101.968 419.89,109.302 421.5,116.5C 420.833,116.5 420.167,116.5 419.5,116.5C 418.587,110.559 418.254,104.559 418.5,98.5C 418.232,96.901 418.566,95.5676 419.5,94.5 Z"/></g>
<g><path style="opacity:1" fill="#0a8f37" d="M 464.5,114.5 C 466.568,117.763 467.568,121.43 467.5,125.5C 467.5,126.5 467.5,127.5 467.5,128.5C 465.952,128.179 465.285,127.179 465.5,125.5C 460.847,126.001 456.514,125.334 452.5,123.5C 455.756,120.766 459.423,118.6 463.5,117C 464.252,116.329 464.586,115.496 464.5,114.5 Z"/></g>
<g><path style="opacity:1" fill="#006f2c" d="M 419.5,116.5 C 420.167,116.5 420.833,116.5 421.5,116.5C 425.603,120.061 430.27,122.894 435.5,125C 441.345,125.948 447.012,125.448 452.5,123.5C 456.514,125.334 460.847,126.001 465.5,125.5C 465.285,127.179 465.952,128.179 467.5,128.5C 460.699,138.945 451.032,143.111 438.5,141C 436.138,139.489 433.805,137.989 431.5,136.5C 428.427,131.008 424.427,126.341 419.5,122.5C 418.699,120.958 418.366,119.292 418.5,117.5C 419.167,117.5 419.5,117.167 419.5,116.5 Z"/></g>
<g><path style="opacity:1" fill="#008d33" d="M 235.5,120.5 C 241.762,124.905 248.429,128.738 255.5,132C 266.993,133.738 277.66,131.905 287.5,126.5C 287.5,127.833 287.5,129.167 287.5,130.5C 283.194,132.806 279.861,136.139 277.5,140.5C 277.167,140.5 276.833,140.5 276.5,140.5C 271.821,140.666 267.155,140.499 262.5,140C 255.182,137.062 247.849,134.229 240.5,131.5C 238.348,128.027 236.681,124.36 235.5,120.5 Z"/></g>
<g><path style="opacity:1" fill="#174f40" d="M 297.5,130.5 C 297.483,132.565 297.15,134.565 296.5,136.5C 293.71,133.408 290.376,132.742 286.5,134.5C 287.234,133.292 287.567,131.959 287.5,130.5C 287.5,129.167 287.5,127.833 287.5,126.5C 289.377,123.27 292.044,121.27 295.5,120.5C 296.167,123.833 296.833,127.167 297.5,130.5 Z"/></g>
<g><path style="opacity:1" fill="#026c30" d="M 369.5,121.5 C 373.871,123.033 377.205,125.866 379.5,130C 382.036,130.186 384.369,130.686 386.5,131.5C 377.909,133.041 372.243,129.707 369.5,121.5 Z"/></g>
<g><path style="opacity:1" fill="#184640" d="M 419.5,122.5 C 424.427,126.341 428.427,131.008 431.5,136.5C 428.386,135.909 425.886,134.242 424,131.5C 421.429,129.024 419.929,126.024 419.5,122.5 Z"/></g>
<g><path style="opacity:1" fill="#016f2d" d="M 297.5,130.5 C 298.552,130.351 299.552,130.517 300.5,131C 307.662,140.08 316.996,143.913 328.5,142.5C 338.532,147.123 344.532,144.123 346.5,133.5C 346.5,132.833 346.833,132.5 347.5,132.5C 347.391,143.455 342.058,150.622 331.5,154C 323.028,156.912 315.362,155.745 308.5,150.5C 306.5,146.5 303.5,143.5 299.5,141.5C 297.75,140.341 296.75,138.674 296.5,136.5C 297.15,134.565 297.483,132.565 297.5,130.5 Z"/></g>
<g><path style="opacity:1" fill="#016b2d" d="M 240.5,131.5 C 247.849,134.229 255.182,137.062 262.5,140C 267.155,140.499 271.821,140.666 276.5,140.5C 275.977,142.708 274.644,144.208 272.5,145C 259.088,146.789 248.421,142.289 240.5,131.5 Z"/></g>
<g><path style="opacity:1" fill="#019035" d="M 346.5,133.5 C 344.532,144.123 338.532,147.123 328.5,142.5C 334.447,139.593 340.447,136.593 346.5,133.5 Z"/></g>
<g><path style="opacity:1" fill="#026230" d="M 287.5,130.5 C 287.567,131.959 287.234,133.292 286.5,134.5C 284.53,138.151 281.53,140.151 277.5,140.5C 279.861,136.139 283.194,132.806 287.5,130.5 Z"/></g>
<g><path style="opacity:1" fill="#1a4542" d="M 299.5,141.5 C 303.5,143.5 306.5,146.5 308.5,150.5C 303.167,149.833 300.167,146.833 299.5,141.5 Z"/></g>
<g><path style="opacity:1" fill="#f3f7f7" d="M 371.5,152.5 C 374.084,154.472 377.084,155.472 380.5,155.5C 383.119,155.232 385.619,155.565 388,156.5C 389.059,159.618 390.392,162.618 392,165.5C 392.667,167.5 392.667,169.5 392,171.5C 384.323,176.515 376.656,181.515 369,186.5C 363.208,179.252 358.708,171.252 355.5,162.5C 357.295,157.529 360.128,153.195 364,149.5C 366.465,150.651 368.965,151.651 371.5,152.5 Z"/></g>
<g><path style="opacity:1" fill="#667e87" d="M 371.5,152.5 C 374.855,152.69 377.855,153.69 380.5,155.5C 377.084,155.472 374.084,154.472 371.5,152.5 Z"/></g>
<g><path style="opacity:1" fill="#719090" d="M 530.5,159.5 C 516.142,159.255 501.808,159.588 487.5,160.5C 488.609,159.71 489.942,159.21 491.5,159C 504.673,158.173 517.673,158.34 530.5,159.5 Z"/></g>
<g><path style="opacity:1" fill="#ecf6f1" d="M 530.5,159.5 C 532.916,160.968 535.583,161.635 538.5,161.5C 540.031,162.925 539.698,163.591 537.5,163.5C 530.159,163.334 522.826,163.5 515.5,164C 508.943,165.092 502.609,166.592 496.5,168.5C 494.958,169.301 493.292,169.634 491.5,169.5C 487.085,169.861 483.085,171.194 479.5,173.5C 472.975,175.451 466.308,176.784 459.5,177.5C 459.369,176.624 459.702,175.957 460.5,175.5C 467.232,171.143 473.898,166.809 480.5,162.5C 482.588,161.061 484.921,160.394 487.5,160.5C 501.808,159.588 516.142,159.255 530.5,159.5 Z"/></g>
<g><path style="opacity:1" fill="#697f89" d="M 242.5,160.5 C 245.855,160.69 248.855,161.69 251.5,163.5C 248.084,163.472 245.084,162.472 242.5,160.5 Z"/></g>
<g><path style="opacity:1" fill="#397365" d="M 538.5,161.5 C 539.497,161.47 540.164,161.97 540.5,163C 539.644,164.595 538.311,165.428 536.5,165.5C 536.5,165.167 536.5,164.833 536.5,164.5C 537.167,164.5 537.5,164.167 537.5,163.5C 539.698,163.591 540.031,162.925 538.5,161.5 Z"/></g>
<g><path style="opacity:1" fill="#a9b6bb" d="M 286.5,160.5 C 283.069,163.114 279.069,164.114 274.5,163.5C 278.298,162.132 282.298,161.132 286.5,160.5 Z"/></g>
<g><path style="opacity:1" fill="#058c35" d="M 463.5,162.5 C 469.167,162.5 474.833,162.5 480.5,162.5C 473.898,166.809 467.232,171.143 460.5,175.5C 459.702,175.957 459.369,176.624 459.5,177.5C 458.391,177.557 457.391,177.89 456.5,178.5C 452.647,177.834 448.647,177.167 444.5,176.5C 443.787,173.904 443.787,171.237 444.5,168.5C 446.553,168.598 448.22,167.931 449.5,166.5C 450.791,166.737 451.791,166.404 452.5,165.5C 456.57,165.568 460.237,164.568 463.5,162.5 Z"/></g>
<g><path style="opacity:1" fill="#055934" d="M 463.5,162.5 C 460.237,164.568 456.57,165.568 452.5,165.5C 455.907,163.926 459.573,162.926 463.5,162.5 Z"/></g>
<g><path style="opacity:1" fill="#19de5b" d="M 536.5,164.5 C 536.5,164.833 536.5,165.167 536.5,165.5C 534.973,165.427 533.973,166.094 533.5,167.5C 532.448,167.351 531.448,167.517 530.5,168C 521.722,174.711 513.389,181.878 505.5,189.5C 504.833,189.5 504.5,189.833 504.5,190.5C 498.532,191.184 493.865,193.851 490.5,198.5C 490.167,198.5 489.833,198.5 489.5,198.5C 487.612,196.012 486.945,193.012 487.5,189.5C 480.5,189.213 473.834,190.213 467.5,192.5C 459.493,192.666 451.493,192.5 443.5,192C 441.919,191.293 440.419,190.46 439,189.5C 438.316,188.216 438.483,187.049 439.5,186C 445.321,183.785 450.987,181.285 456.5,178.5C 457.391,177.89 458.391,177.557 459.5,177.5C 466.308,176.784 472.975,175.451 479.5,173.5C 483.915,173.139 487.915,171.806 491.5,169.5C 493.292,169.634 494.958,169.301 496.5,168.5C 503.255,167.844 509.922,166.678 516.5,165C 523.158,164.5 529.825,164.334 536.5,164.5 Z"/></g>
<g><path style="opacity:1" fill="#85eda6" d="M 537.5,163.5 C 537.5,164.167 537.167,164.5 536.5,164.5C 529.825,164.334 523.158,164.5 516.5,165C 509.922,166.678 503.255,167.844 496.5,168.5C 502.609,166.592 508.943,165.092 515.5,164C 522.826,163.5 530.159,163.334 537.5,163.5 Z"/></g>
<g><path style="opacity:1" fill="#6ae98f" d="M 491.5,169.5 C 487.915,171.806 483.915,173.139 479.5,173.5C 483.085,171.194 487.085,169.861 491.5,169.5 Z"/></g>
<g><path style="opacity:1" fill="#11463e" d="M 533.5,167.5 C 532.91,168.766 532.41,170.099 532,171.5C 525.863,177.559 519.196,182.893 512,187.5C 511.228,187.355 510.561,187.022 510,186.5C 508.871,188.141 507.371,189.141 505.5,189.5C 513.389,181.878 521.722,174.711 530.5,168C 531.448,167.517 532.448,167.351 533.5,167.5 Z"/></g>
<g><path style="opacity:1" fill="#758b93" d="M 277.5,180.5 C 268.134,180.279 258.801,180.613 249.5,181.5C 250.263,180.732 251.263,180.232 252.5,180C 261.01,179.177 269.344,179.343 277.5,180.5 Z"/></g>
<g><path style="opacity:1" fill="#879aa1" d="M 281.5,180.5 C 283.898,180.259 285.898,180.926 287.5,182.5C 285.102,182.741 283.102,182.074 281.5,180.5 Z"/></g>
<g><path style="opacity:1" fill="#83969e" d="M 287.5,182.5 C 290.716,182.345 293.383,183.345 295.5,185.5C 292.603,184.871 289.936,183.871 287.5,182.5 Z"/></g>
<g><path style="opacity:1" fill="#1a4542" d="M 419.5,180.5 C 420.028,181.847 420.195,183.181 420,184.5C 415.555,187.44 412.055,191.107 409.5,195.5C 413.22,195.436 416.886,194.936 420.5,194C 423.94,191.613 427.607,189.78 431.5,188.5C 433.615,189.079 435.615,189.912 437.5,191C 439.518,197.521 443.851,201.355 450.5,202.5C 449.167,203.5 449.167,204.5 450.5,205.5C 432.18,199.22 413.514,197.553 394.5,200.5C 395.974,199.325 397.64,198.325 399.5,197.5C 397.604,196.534 395.604,196.201 393.5,196.5C 396.641,195.679 399.975,195.179 403.5,195C 405.251,191.58 407.918,189.246 411.5,188C 414.062,185.267 416.729,182.767 419.5,180.5 Z"/></g>
<g><path style="opacity:1" fill="#617983" d="M 239.5,184.5 C 237.485,185.924 235.152,186.59 232.5,186.5C 234.515,185.076 236.848,184.41 239.5,184.5 Z"/></g>
<g><path style="opacity:1" fill="#028d36" d="M 489.5,198.5 C 488.833,199.167 488.167,199.833 487.5,200.5C 486.178,200.67 485.011,200.337 484,199.5C 483.385,197.884 482.385,196.551 481,195.5C 480.51,194.207 480.343,192.873 480.5,191.5C 476.143,191.586 471.81,191.92 467.5,192.5C 473.834,190.213 480.5,189.213 487.5,189.5C 486.945,193.012 487.612,196.012 489.5,198.5 Z"/></g>
<g><path style="opacity:1" fill="#016e2d" d="M 449.5,166.5 C 448.22,167.931 446.553,168.598 444.5,168.5C 443.787,171.237 443.787,173.904 444.5,176.5C 448.647,177.167 452.647,177.834 456.5,178.5C 450.987,181.285 445.321,183.785 439.5,186C 438.483,187.049 438.316,188.216 439,189.5C 440.419,190.46 441.919,191.293 443.5,192C 451.493,192.5 459.493,192.666 467.5,192.5C 471.81,191.92 476.143,191.586 480.5,191.5C 480.343,192.873 480.51,194.207 481,195.5C 482.385,196.551 483.385,197.884 484,199.5C 485.011,200.337 486.178,200.67 487.5,200.5C 482.872,204.112 477.539,205.778 471.5,205.5C 464.255,205.934 457.255,204.934 450.5,202.5C 443.851,201.355 439.518,197.521 437.5,191C 435.615,189.912 433.615,189.079 431.5,188.5C 427.607,189.78 423.94,191.613 420.5,194C 416.886,194.936 413.22,195.436 409.5,195.5C 412.055,191.107 415.555,187.44 420,184.5C 420.195,183.181 420.028,181.847 419.5,180.5C 428.419,173.751 438.419,169.084 449.5,166.5 Z"/></g>
<g><path style="opacity:1" fill="#0f4d3e" d="M 504.5,190.5 C 501.458,195.696 496.792,198.363 490.5,198.5C 493.865,193.851 498.532,191.184 504.5,190.5 Z"/></g>
<g><path style="opacity:1" fill="#b8c8c9" d="M 393.5,196.5 C 395.604,196.201 397.604,196.534 399.5,197.5C 397.64,198.325 395.974,199.325 394.5,200.5C 391.243,201.462 388.243,202.962 385.5,205C 384.167,205.667 382.833,205.667 381.5,205C 384.595,200.715 388.595,197.882 393.5,196.5 Z"/></g>
<g><path style="opacity:1" fill="#86aaa2" d="M 278.5,202.5 C 268.815,202.422 259.148,202.755 249.5,203.5C 250.609,202.71 251.942,202.21 253.5,202C 262.01,201.177 270.344,201.343 278.5,202.5 Z"/></g>
<g><path style="opacity:1" fill="#f0f9f5" d="M 278.5,202.5 C 280.509,204.065 282.843,205.065 285.5,205.5C 295.006,210.675 301.673,218.341 305.5,228.5C 298.52,225.708 291.853,222.208 285.5,218C 280.593,216.386 275.593,215.219 270.5,214.5C 267.686,213.835 264.686,213.502 261.5,213.5C 256.893,213.316 252.56,213.983 248.5,215.5C 242.814,217.336 236.981,218.67 231,219.5C 228.879,219.302 227.046,218.636 225.5,217.5C 227.878,215.122 230.545,213.122 233.5,211.5C 235.966,210.702 237.966,209.369 239.5,207.5C 243.327,207.248 246.66,205.915 249.5,203.5C 259.148,202.755 268.815,202.422 278.5,202.5 Z"/></g>
<g><path style="opacity:1" fill="#6e938f" d="M 278.5,202.5 C 281.346,202.552 283.68,203.552 285.5,205.5C 282.843,205.065 280.509,204.065 278.5,202.5 Z"/></g>
<g><path style="opacity:1" fill="#94baae" d="M 249.5,203.5 C 246.66,205.915 243.327,207.248 239.5,207.5C 242.37,205.206 245.703,203.872 249.5,203.5 Z"/></g>
<g><path style="opacity:1" fill="#074e35" d="M 450.5,202.5 C 457.255,204.934 464.255,205.934 471.5,205.5C 464.629,206.777 457.629,206.777 450.5,205.5C 449.167,204.5 449.167,203.5 450.5,202.5 Z"/></g>
<g><path style="opacity:1" fill="#80ac9e" d="M 239.5,207.5 C 237.966,209.369 235.966,210.702 233.5,211.5C 234.802,209.178 236.802,207.845 239.5,207.5 Z"/></g>
<g><path style="opacity:1" fill="#89eeaa" d="M 270.5,214.5 C 263.151,214.549 255.817,214.882 248.5,215.5C 252.56,213.983 256.893,213.316 261.5,213.5C 264.686,213.502 267.686,213.835 270.5,214.5 Z"/></g>
<g><path style="opacity:1" fill="#1bdf5c" d="M 270.5,214.5 C 275.593,215.219 280.593,216.386 285.5,218C 291.853,222.208 298.52,225.708 305.5,228.5C 308.124,233.729 308.124,239.062 305.5,244.5C 296.048,251.584 285.381,254.084 273.5,252C 263.84,247.679 254.173,243.345 244.5,239C 235.647,236.788 226.647,235.954 217.5,236.5C 215.046,235.773 212.713,234.773 210.5,233.5C 210.351,232.448 210.517,231.448 211,230.5C 215.328,227.268 219.494,223.934 223.5,220.5C 223.427,218.973 224.094,217.973 225.5,217.5C 227.046,218.636 228.879,219.302 231,219.5C 236.981,218.67 242.814,217.336 248.5,215.5C 255.817,214.882 263.151,214.549 270.5,214.5 Z"/></g>
<g><path style="opacity:1" fill="#194d42" d="M 223.5,220.5 C 219.494,223.934 215.328,227.268 211,230.5C 210.517,231.448 210.351,232.448 210.5,233.5C 209.236,231.228 209.402,228.895 211,226.5C 213.5,224.667 216,222.833 218.5,221C 220.134,220.506 221.801,220.34 223.5,220.5 Z"/></g>
<g><path style="opacity:1" fill="#7d9299" d="M 509.5,220.5 C 514.59,222.144 519.923,223.144 525.5,223.5C 519.833,223.5 514.167,223.5 508.5,223.5C 508.263,222.209 508.596,221.209 509.5,220.5 Z"/></g>
<g><path style="opacity:1" fill="#618384" d="M 446.5,230.5 C 439.151,230.549 431.817,230.882 424.5,231.5C 428.742,230.032 433.242,229.366 438,229.5C 441.021,229.502 443.854,229.836 446.5,230.5 Z"/></g>
<g><path style="opacity:1" fill="#f1f8f5" d="M 446.5,230.5 C 467.072,232.19 481.239,242.523 489,261.5C 490.271,266.754 490.771,272.087 490.5,277.5C 486.032,270.102 480.699,263.269 474.5,257C 467.327,252.08 459.661,248.247 451.5,245.5C 451.082,244.778 450.416,244.278 449.5,244C 441.323,243.177 433.323,243.344 425.5,244.5C 422.284,244.345 419.617,245.345 417.5,247.5C 412.864,248.578 408.531,250.411 404.5,253C 401.297,256.371 397.964,259.538 394.5,262.5C 393.632,259.673 393.632,256.673 394.5,253.5C 399.698,243.967 407.365,237.3 417.5,233.5C 420.152,233.59 422.485,232.924 424.5,231.5C 431.817,230.882 439.151,230.549 446.5,230.5 Z"/></g>
<g><path style="opacity:1" fill="#738e92" d="M 424.5,231.5 C 422.485,232.924 420.152,233.59 417.5,233.5C 419.515,232.076 421.848,231.41 424.5,231.5 Z"/></g>
<g><path style="opacity:1" fill="#01712d" d="M 217.5,236.5 C 226.647,235.954 235.647,236.788 244.5,239C 254.173,243.345 263.84,247.679 273.5,252C 285.381,254.084 296.048,251.584 305.5,244.5C 305.5,245.5 305.5,246.5 305.5,247.5C 295.502,263.857 280.835,271.357 261.5,270C 260.584,269.626 259.75,269.126 259,268.5C 258.218,265.784 256.884,263.45 255,261.5C 247.897,259.413 240.73,257.579 233.5,256C 230.762,248.429 225.762,242.929 218.5,239.5C 217.596,238.791 217.263,237.791 217.5,236.5 Z"/></g>
<g><path style="opacity:1" fill="#8b9da4" d="M 340.5,236.5 C 345.703,237.009 350.37,238.676 354.5,241.5C 349.607,240.204 344.94,238.538 340.5,236.5 Z"/></g>
<g><path style="opacity:1" fill="#80a29d" d="M 512.5,241.5 C 508.131,241.467 503.798,241.8 499.5,242.5C 501.634,240.967 504.134,240.3 507,240.5C 509.033,240.506 510.866,240.839 512.5,241.5 Z"/></g>
<g><path style="opacity:1" fill="#ebf6f1" d="M 512.5,241.5 C 518.728,244.939 520.728,249.939 518.5,256.5C 518.167,255.5 517.5,254.833 516.5,254.5C 514.098,252.091 511.431,250.091 508.5,248.5C 504.558,248.125 500.891,247.125 497.5,245.5C 498.167,244.5 498.833,243.5 499.5,242.5C 503.798,241.8 508.131,241.467 512.5,241.5 Z"/></g>
<g><path style="opacity:1" fill="#83eda5" d="M 425.5,244.5 C 433.323,243.344 441.323,243.177 449.5,244C 450.416,244.278 451.082,244.778 451.5,245.5C 442.867,244.623 434.2,244.289 425.5,244.5 Z"/></g>
<g><path style="opacity:1" fill="#1ae05b" d="M 425.5,244.5 C 434.2,244.289 442.867,244.623 451.5,245.5C 459.661,248.247 467.327,252.08 474.5,257C 480.699,263.269 486.032,270.102 490.5,277.5C 490.244,280.598 489.578,283.598 488.5,286.5C 486.754,288.252 484.754,289.585 482.5,290.5C 479.684,290.544 477.351,291.544 475.5,293.5C 470.88,294.493 466.214,294.827 461.5,294.5C 458.029,291.86 455.029,288.694 452.5,285C 439.122,284.797 425.789,284.297 412.5,283.5C 409.996,282.416 407.663,281.083 405.5,279.5C 403.165,276.835 400.165,275.502 396.5,275.5C 396.167,275.5 395.833,275.5 395.5,275.5C 394.207,273.704 392.707,272.037 391,270.5C 390.505,268.527 390.338,266.527 390.5,264.5C 392.411,266.737 393.744,266.07 394.5,262.5C 397.964,259.538 401.297,256.371 404.5,253C 408.531,250.411 412.864,248.578 417.5,247.5C 420.397,246.871 423.064,245.871 425.5,244.5 Z"/></g>
<g><path style="opacity:1" fill="#8beeab" d="M 425.5,244.5 C 423.064,245.871 420.397,246.871 417.5,247.5C 419.617,245.345 422.284,244.345 425.5,244.5 Z"/></g>
<g><path style="opacity:1" fill="#8ed4a9" d="M 497.5,245.5 C 500.891,247.125 504.558,248.125 508.5,248.5C 507.167,248.5 505.833,248.5 504.5,248.5C 501.833,248.5 499.167,248.5 496.5,248.5C 496.263,247.209 496.596,246.209 497.5,245.5 Z"/></g>
<g><path style="opacity:1" fill="#058737" d="M 496.5,248.5 C 499.167,248.5 501.833,248.5 504.5,248.5C 503.071,249.234 502.071,250.401 501.5,252C 503.524,254.881 504.857,258.047 505.5,261.5C 511.347,262.284 515.013,259.951 516.5,254.5C 517.5,254.833 518.167,255.5 518.5,256.5C 518.338,260.882 515.838,263.882 511,265.5C 502.268,265.235 497.102,260.902 495.5,252.5C 495.623,251.075 495.957,249.742 496.5,248.5 Z"/></g>
<g><path style="opacity:1" fill="#1cdc5b" d="M 504.5,248.5 C 505.833,248.5 507.167,248.5 508.5,248.5C 511.431,250.091 514.098,252.091 516.5,254.5C 515.013,259.951 511.347,262.284 505.5,261.5C 504.857,258.047 503.524,254.881 501.5,252C 502.071,250.401 503.071,249.234 504.5,248.5 Z"/></g>
<g><path style="opacity:1" fill="#184441" d="M 218.5,239.5 C 225.762,242.929 230.762,248.429 233.5,256C 240.73,257.579 247.897,259.413 255,261.5C 256.884,263.45 258.218,265.784 259,268.5C 259.75,269.126 260.584,269.626 261.5,270C 280.835,271.357 295.502,263.857 305.5,247.5C 305.12,250.745 303.953,253.745 302,256.5C 290.339,270.141 275.505,275.307 257.5,272C 254.383,269.458 251.717,266.458 249.5,263C 243.214,260.845 236.88,258.845 230.5,257C 225.352,251.844 221.352,246.011 218.5,239.5 Z"/></g>
<g><path style="opacity:1" fill="#f4f8f8" d="M 327.5,260.5 C 332.791,261.772 338.124,262.938 343.5,264C 349.22,265.679 352.887,269.346 354.5,275C 353.969,279.988 352.802,284.822 351,289.5C 340.875,307.083 332.375,325.416 325.5,344.5C 314.849,345.666 304.182,345.832 293.5,345C 290.156,341.839 287.656,338.005 286,333.5C 278.293,321.971 267.626,314.638 254,311.5C 251.539,305.951 249.372,300.284 247.5,294.5C 258.432,293.855 269.265,292.522 280,290.5C 281.167,290.833 282.333,291.167 283.5,291.5C 295.002,308.219 309.335,311.052 326.5,300C 333.006,293.495 335.506,285.661 334,276.5C 331.538,271.248 329.371,265.915 327.5,260.5 Z"/></g>
<g><path style="opacity:1" fill="#afdfc1" d="M 394.5,253.5 C 393.632,256.673 393.632,259.673 394.5,262.5C 393.744,266.07 392.411,266.737 390.5,264.5C 391.091,260.494 392.425,256.827 394.5,253.5 Z"/></g>
<g><path style="opacity:1" fill="#19b153" d="M 396.5,275.5 C 400.165,275.502 403.165,276.835 405.5,279.5C 402.088,278.925 399.088,277.592 396.5,275.5 Z"/></g>
<g><path style="opacity:1" fill="#6a8089" d="M 208.5,275.5 C 206.064,276.871 203.397,277.871 200.5,278.5C 202.617,276.345 205.284,275.345 208.5,275.5 Z"/></g>
<g><path style="opacity:1" fill="#184941" d="M 395.5,275.5 C 395.833,275.5 396.167,275.5 396.5,275.5C 399.088,277.592 402.088,278.925 405.5,279.5C 407.663,281.083 409.996,282.416 412.5,283.5C 413.234,284.708 413.567,286.041 413.5,287.5C 411.833,287.5 410.167,287.5 408.5,287.5C 408.719,288.675 408.386,289.675 407.5,290.5C 406.378,289.37 405.044,288.703 403.5,288.5C 403.657,287.127 403.49,285.793 403,284.5C 399.888,281.899 397.388,278.899 395.5,275.5 Z"/></g>
<g><path style="opacity:1" fill="#9babb1" d="M 192.5,284.5 C 188.131,284.467 183.798,284.8 179.5,285.5C 181.848,284.048 184.514,283.382 187.5,283.5C 189.369,283.507 191.036,283.84 192.5,284.5 Z"/></g>
<g><path style="opacity:1" fill="#008f33" d="M 412.5,283.5 C 425.789,284.297 439.122,284.797 452.5,285C 455.029,288.694 458.029,291.86 461.5,294.5C 455.897,297.301 450.231,300.135 444.5,303C 436.895,304.311 429.228,304.811 421.5,304.5C 419.716,304.107 418.05,303.441 416.5,302.5C 414.167,299.997 412.001,297.331 410,294.5C 409.505,292.527 409.338,290.527 409.5,288.5C 411.099,288.768 412.432,288.434 413.5,287.5C 413.567,286.041 413.234,284.708 412.5,283.5 Z"/></g>
<g><path style="opacity:1" fill="#016f2e" d="M 413.5,287.5 C 412.432,288.434 411.099,288.768 409.5,288.5C 409.338,290.527 409.505,292.527 410,294.5C 412.001,297.331 414.167,299.997 416.5,302.5C 415.5,302.5 414.5,302.5 413.5,302.5C 407.39,299.736 404.057,295.07 403.5,288.5C 405.044,288.703 406.378,289.37 407.5,290.5C 408.386,289.675 408.719,288.675 408.5,287.5C 410.167,287.5 411.833,287.5 413.5,287.5 Z"/></g>
<g><path style="opacity:1" fill="#194740" d="M 488.5,286.5 C 488.657,287.873 488.49,289.207 488,290.5C 482.543,294.117 478.377,298.784 475.5,304.5C 474.307,304.03 473.64,303.03 473.5,301.5C 474.408,295.965 477.408,292.298 482.5,290.5C 484.754,289.585 486.754,288.252 488.5,286.5 Z"/></g>
<g><path style="opacity:1" fill="#8ea0a7" d="M 224.5,295.5 C 219.189,294.296 213.856,294.296 208.5,295.5C 208.918,294.778 209.584,294.278 210.5,294C 214.833,293.333 219.167,293.333 223.5,294C 224.056,294.383 224.389,294.883 224.5,295.5 Z"/></g>
<g><path style="opacity:1" fill="#eaeff1" d="M 224.5,295.5 C 230.849,298.532 234.516,303.532 235.5,310.5C 234.127,310.657 232.793,310.49 231.5,310C 229.973,307.31 227.973,305.143 225.5,303.5C 220.684,302.35 215.684,302.184 210.5,303C 209.584,303.278 208.918,303.778 208.5,304.5C 204.131,307.209 200.464,310.542 197.5,314.5C 193.689,313.355 189.689,313.188 185.5,314C 183.68,314.2 182.347,315.034 181.5,316.5C 179.164,318.004 177.331,320.004 176,322.5C 176.148,326.179 176.648,329.845 177.5,333.5C 173.812,333.781 170.145,334.281 166.5,335C 161.027,341.622 158.527,340.789 159,332.5C 161.668,327.32 165.835,324.32 171.5,323.5C 172.998,319.516 174.498,315.516 176,311.5C 177.451,308.697 179.618,306.697 182.5,305.5C 188.213,304.117 193.88,303.117 199.5,302.5C 201.5,301.024 203.167,299.191 204.5,297C 205.745,296.209 207.078,295.709 208.5,295.5C 213.856,294.296 219.189,294.296 224.5,295.5 Z"/></g>
<g><path style="opacity:1" fill="#00702c" d="M 482.5,290.5 C 477.408,292.298 474.408,295.965 473.5,301.5C 473.64,303.03 474.307,304.03 475.5,304.5C 475.703,306.39 475.037,307.89 473.5,309C 470.371,310.399 467.371,312.065 464.5,314C 460.962,314.535 457.628,315.368 454.5,316.5C 446.132,316.194 437.799,315.527 429.5,314.5C 427.629,314.141 426.129,313.141 425,311.5C 424.109,308.97 422.942,306.637 421.5,304.5C 429.228,304.811 436.895,304.311 444.5,303C 450.231,300.135 455.897,297.301 461.5,294.5C 466.214,294.827 470.88,294.493 475.5,293.5C 477.351,291.544 479.684,290.544 482.5,290.5 Z"/></g>
<g><path style="opacity:1" fill="#637b84" d="M 199.5,302.5 C 193.88,303.117 188.213,304.117 182.5,305.5C 183.058,304.21 184.058,303.377 185.5,303C 190.155,302.501 194.821,302.334 199.5,302.5 Z"/></g>
<g><path style="opacity:1" fill="#7c9199" d="M 225.5,303.5 C 219.797,303.375 214.13,303.708 208.5,304.5C 208.918,303.778 209.584,303.278 210.5,303C 215.684,302.184 220.684,302.35 225.5,303.5 Z"/></g>
<g><path style="opacity:1" fill="#748991" d="M 533.5,303.5 C 529.131,303.467 524.798,303.8 520.5,304.5C 522.634,302.967 525.134,302.3 528,302.5C 530.033,302.506 531.866,302.839 533.5,303.5 Z"/></g>
<g><path style="opacity:1" fill="#194541" d="M 413.5,302.5 C 414.5,302.5 415.5,302.5 416.5,302.5C 418.05,303.441 419.716,304.107 421.5,304.5C 422.942,306.637 424.109,308.97 425,311.5C 426.129,313.141 427.629,314.141 429.5,314.5C 429.918,315.222 430.584,315.722 431.5,316C 437.161,316.633 442.828,317.133 448.5,317.5C 433.032,321.604 421.365,316.604 413.5,302.5 Z"/></g>
<g><path style="opacity:1" fill="#eaefef" d="M 533.5,303.5 C 543.033,306.208 548.533,312.541 550,322.5C 552.619,325.889 556.119,327.389 560.5,327C 565.422,329.993 567.089,334.16 565.5,339.5C 560.869,340.662 556.202,340.828 551.5,340C 549.288,332.742 546.121,325.908 542,319.5C 539.544,317.346 536.711,316.013 533.5,315.5C 530.024,314.357 526.358,314.19 522.5,315C 521.944,315.383 521.611,315.883 521.5,316.5C 517.183,318.653 514.016,321.986 512,326.5C 511.29,325.027 510.124,324.36 508.5,324.5C 507.9,315.028 511.9,308.362 520.5,304.5C 524.798,303.8 529.131,303.467 533.5,303.5 Z"/></g>
<g><path style="opacity:1" fill="#8b9da4" d="M 197.5,314.5 C 192.009,314.15 186.676,314.816 181.5,316.5C 182.347,315.034 183.68,314.2 185.5,314C 189.689,313.188 193.689,313.355 197.5,314.5 Z"/></g>
<g><path style="opacity:1" fill="#748992" d="M 533.5,315.5 C 529.434,315.307 525.434,315.64 521.5,316.5C 521.611,315.883 521.944,315.383 522.5,315C 526.358,314.19 530.024,314.357 533.5,315.5 Z"/></g>
<g><path style="opacity:1" fill="#0b5c35" d="M 429.5,314.5 C 437.799,315.527 446.132,316.194 454.5,316.5C 452.735,317.461 450.735,317.795 448.5,317.5C 442.828,317.133 437.161,316.633 431.5,316C 430.584,315.722 429.918,315.222 429.5,314.5 Z"/></g>
<g><path style="opacity:1" fill="#f6f9f9" d="M 391.5,362.5 C 388.813,362.336 386.146,362.503 383.5,363C 381.347,363.099 379.681,363.933 378.5,365.5C 377.833,365.5 377.167,365.5 376.5,365.5C 374.033,365.755 372.033,366.755 370.5,368.5C 366.289,370.531 362.456,373.198 359,376.5C 355.886,360.721 358.22,345.721 366,331.5C 369.349,325.614 373.515,320.447 378.5,316C 383.5,315.333 388.5,315.333 393.5,316C 400.936,320.281 407.936,325.114 414.5,330.5C 405.987,339.517 399.487,349.851 395,361.5C 393.989,362.337 392.822,362.67 391.5,362.5 Z"/></g>
<g><path style="opacity:1" fill="#ebf5f1" d="M 269.5,353.5 C 268.817,355.176 267.483,355.843 265.5,355.5C 260.993,351.832 256.327,348.332 251.5,345C 247.803,342.908 243.803,341.741 239.5,341.5C 235.019,340.352 230.352,340.185 225.5,341C 222.719,341.522 220.385,342.689 218.5,344.5C 213.833,345.275 209.5,346.942 205.5,349.5C 204.571,348.311 204.238,346.978 204.5,345.5C 206.893,341.598 209.893,338.098 213.5,335C 217.865,333.6 222.199,332.1 226.5,330.5C 232.807,329.336 239.141,329.169 245.5,330C 257.393,334.061 265.393,341.895 269.5,353.5 Z"/></g>
<g><path style="opacity:1" fill="#799b97" d="M 518.5,340.5 C 514.466,340.505 510.466,340.838 506.5,341.5C 508.462,339.983 510.795,339.316 513.5,339.5C 515.369,339.507 517.036,339.84 518.5,340.5 Z"/></g>
<g><path style="opacity:1" fill="#e8f6ef" d="M 518.5,340.5 C 520.473,341.806 522.139,343.473 523.5,345.5C 523.179,347.048 522.179,347.715 520.5,347.5C 518.485,346.076 516.152,345.41 513.5,345.5C 509.671,346.069 506.337,345.402 503.5,343.5C 503.973,342.094 504.973,341.427 506.5,341.5C 510.466,340.838 514.466,340.505 518.5,340.5 Z"/></g>
<g><path style="opacity:1" fill="#8befab" d="M 239.5,341.5 C 232.241,340.928 225.241,341.928 218.5,344.5C 220.385,342.689 222.719,341.522 225.5,341C 230.352,340.185 235.019,340.352 239.5,341.5 Z"/></g>
<g><path style="opacity:1" fill="#1de05d" d="M 239.5,341.5 C 243.803,341.741 247.803,342.908 251.5,345C 256.327,348.332 260.993,351.832 265.5,355.5C 265.759,358.48 264.426,360.313 261.5,361C 244.503,361.5 227.503,361.667 210.5,361.5C 206.99,358.642 204.657,354.976 203.5,350.5C 203.5,349.833 203.5,349.167 203.5,348.5C 203.263,347.209 203.596,346.209 204.5,345.5C 204.238,346.978 204.571,348.311 205.5,349.5C 209.5,346.942 213.833,345.275 218.5,344.5C 225.241,341.928 232.241,340.928 239.5,341.5 Z"/></g>
<g><path style="opacity:1" fill="#17de5b" d="M 192.5,347.5 C 194.5,349.167 196.5,350.833 198.5,352.5C 200.023,355.345 201.023,358.345 201.5,361.5C 201.5,362.167 201.5,362.833 201.5,363.5C 200.833,364.833 200.167,366.167 199.5,367.5C 195.827,370.33 191.994,372.997 188,375.5C 183.041,376.791 178.208,378.125 173.5,379.5C 170.167,379.5 166.833,379.5 163.5,379.5C 154.903,376.296 152.236,370.296 155.5,361.5C 159.888,358.932 164.722,357.599 170,357.5C 171.681,357.392 172.848,356.725 173.5,355.5C 173.372,353.345 173.872,351.345 175,349.5C 176.707,347.963 178.207,346.296 179.5,344.5C 182.64,343.359 185.973,343.192 189.5,344C 190.71,345.039 191.71,346.206 192.5,347.5 Z"/></g>
<g><path style="opacity:1" fill="#608783" d="M 480.5,345.5 C 476.466,345.505 472.466,345.838 468.5,346.5C 470.679,345.074 473.179,344.408 476,344.5C 477.707,344.508 479.207,344.842 480.5,345.5 Z"/></g>
<g><path style="opacity:1" fill="#164940" d="M 179.5,344.5 C 178.207,346.296 176.707,347.963 175,349.5C 173.872,351.345 173.372,353.345 173.5,355.5C 168.833,355.5 164.167,355.5 159.5,355.5C 162.305,354.681 165.305,354.181 168.5,354C 170.5,351 172.5,348 174.5,345C 176.134,344.506 177.801,344.34 179.5,344.5 Z"/></g>
<g><path style="opacity:1" fill="#1add5b" d="M 503.5,343.5 C 506.337,345.402 509.671,346.069 513.5,345.5C 515.515,346.924 517.848,347.59 520.5,347.5C 522.179,347.715 523.179,347.048 523.5,345.5C 524.79,346.058 525.623,347.058 526,348.5C 527.38,353.586 528.546,358.586 529.5,363.5C 529.5,364.5 529.5,365.5 529.5,366.5C 535.71,366.219 541.71,367.219 547.5,369.5C 548.713,369.253 549.38,368.586 549.5,367.5C 551.341,369.849 552.674,372.515 553.5,375.5C 553.67,381.509 551.337,386.342 546.5,390C 544.35,391.411 542.016,392.245 539.5,392.5C 531.086,393.209 525.586,389.543 523,381.5C 522.821,378.447 522.321,375.447 521.5,372.5C 518.329,374.088 514.995,375.088 511.5,375.5C 506.783,373.428 501.783,372.095 496.5,371.5C 493.673,375.266 490.007,378.1 485.5,380C 479.5,380.667 473.5,380.667 467.5,380C 458.136,376.1 454.469,369.267 456.5,359.5C 457.265,359.923 458.098,360.257 459,360.5C 460.8,359.68 462.634,359.014 464.5,358.5C 471.351,356.716 478.351,356.05 485.5,356.5C 487.865,357.008 490.199,357.675 492.5,358.5C 493.107,358.376 493.44,358.043 493.5,357.5C 494.978,357.762 496.311,357.429 497.5,356.5C 499.095,353.32 500.095,349.987 500.5,346.5C 500.856,344.81 501.856,343.81 503.5,343.5 Z"/></g>
<g><path style="opacity:1" fill="#a1f1bb" d="M 513.5,345.5 C 516.152,345.41 518.485,346.076 520.5,347.5C 517.848,347.59 515.515,346.924 513.5,345.5 Z"/></g>
<g><path style="opacity:1" fill="#edf6f2" d="M 480.5,345.5 C 483.594,346.883 486.594,348.55 489.5,350.5C 490.089,353.276 491.422,355.61 493.5,357.5C 493.44,358.043 493.107,358.376 492.5,358.5C 490.199,357.675 487.865,357.008 485.5,356.5C 479.681,355.347 473.681,355.181 467.5,356C 466.058,356.377 465.058,357.21 464.5,358.5C 462.634,359.014 460.8,359.68 459,360.5C 458.098,360.257 457.265,359.923 456.5,359.5C 456.629,357.784 456.962,356.117 457.5,354.5C 458.906,354.027 459.573,353.027 459.5,351.5C 460.962,350.542 462.295,349.376 463.5,348C 465.382,347.802 467.048,347.302 468.5,346.5C 472.466,345.838 476.466,345.505 480.5,345.5 Z"/></g>
<g><path style="opacity:1" fill="#1e4f45" d="M 500.5,346.5 C 500.095,349.987 499.095,353.32 497.5,356.5C 496.311,357.429 494.978,357.762 493.5,357.5C 491.422,355.61 490.089,353.276 489.5,350.5C 491.455,351.323 493.455,351.49 495.5,351C 496.651,348.8 498.318,347.3 500.5,346.5 Z"/></g>
<g><path style="opacity:1" fill="#185341" d="M 192.5,347.5 C 196.135,348.114 199.802,348.448 203.5,348.5C 203.5,349.167 203.5,349.833 203.5,350.5C 202.842,351.398 202.176,352.398 201.5,353.5C 200.583,352.873 199.583,352.539 198.5,352.5C 196.5,350.833 194.5,349.167 192.5,347.5 Z"/></g>
<g><path style="opacity:1" fill="#125f3c" d="M 159.5,355.5 C 164.167,355.5 168.833,355.5 173.5,355.5C 172.848,356.725 171.681,357.392 170,357.5C 164.722,357.599 159.888,358.932 155.5,361.5C 155.845,358.802 157.178,356.802 159.5,355.5 Z"/></g>
<g><path style="opacity:1" fill="#00712c" d="M 457.5,354.5 C 456.962,356.117 456.629,357.784 456.5,359.5C 454.469,369.267 458.136,376.1 467.5,380C 473.5,380.667 479.5,380.667 485.5,380C 490.007,378.1 493.673,375.266 496.5,371.5C 501.783,372.095 506.783,373.428 511.5,375.5C 514.995,375.088 518.329,374.088 521.5,372.5C 522.321,375.447 522.821,378.447 523,381.5C 525.586,389.543 531.086,393.209 539.5,392.5C 537.781,393.022 536.448,394.022 535.5,395.5C 526.383,395.928 517.383,395.262 508.5,393.5C 507.078,393.291 505.745,392.791 504.5,392C 501.238,388.065 497.404,384.898 493,382.5C 490.684,383.65 488.85,385.317 487.5,387.5C 486.51,393.31 486.177,399.31 486.5,405.5C 475.344,405.234 464.344,403.9 453.5,401.5C 437.464,392.557 433.631,379.891 442,363.5C 445.923,358.291 451.09,355.291 457.5,354.5 Z"/></g>
<g><path style="opacity:1" fill="#6eea96" d="M 485.5,356.5 C 478.351,356.05 471.351,356.716 464.5,358.5C 465.058,357.21 466.058,356.377 467.5,356C 473.681,355.181 479.681,355.347 485.5,356.5 Z"/></g>
<g><path style="opacity:1" fill="#018f33" d="M 269.5,353.5 C 272.574,359.838 271.907,365.838 267.5,371.5C 263.894,372.811 260.56,374.478 257.5,376.5C 250.062,378.557 242.395,379.057 234.5,378C 229.526,375.714 224.526,373.38 219.5,371C 215.943,368.251 212.943,365.085 210.5,361.5C 227.503,361.667 244.503,361.5 261.5,361C 264.426,360.313 265.759,358.48 265.5,355.5C 267.483,355.843 268.817,355.176 269.5,353.5 Z"/></g>
<g><path style="opacity:1" fill="#194541" d="M 257.5,376.5 C 260.56,374.478 263.894,372.811 267.5,371.5C 264.067,377.378 260.4,383.045 256.5,388.5C 234.965,394.553 218.631,388.053 207.5,369C 206.207,368.51 204.873,368.343 203.5,368.5C 203.768,370.099 203.434,371.432 202.5,372.5C 201.841,369.545 201.508,366.545 201.5,363.5C 201.5,362.833 201.5,362.167 201.5,361.5C 202.738,360.588 204.072,360.421 205.5,361C 209.785,367.554 214.785,373.554 220.5,379C 229.992,386.166 240.659,388.499 252.5,386C 254.831,383.17 256.498,380.003 257.5,376.5 Z"/></g>
<g><path style="opacity:1" fill="#89a9a4" d="M 545.5,362.5 C 540.049,361.015 534.716,361.348 529.5,363.5C 530.058,362.21 531.058,361.377 532.5,361C 536.5,360.333 540.5,360.333 544.5,361C 545.056,361.383 545.389,361.883 545.5,362.5 Z"/></g>
<g><path style="opacity:1" fill="#e3f7ea" d="M 545.5,362.5 C 547.587,363.585 548.92,365.251 549.5,367.5C 549.38,368.586 548.713,369.253 547.5,369.5C 541.71,367.219 535.71,366.219 529.5,366.5C 529.5,365.5 529.5,364.5 529.5,363.5C 534.716,361.348 540.049,361.015 545.5,362.5 Z"/></g>
<g><path style="opacity:1" fill="#d0dfdc" d="M 574.5,364.5 C 574.5,365.5 574.5,366.5 574.5,367.5C 572.379,367.675 570.379,367.341 568.5,366.5C 567.659,364.621 567.325,362.621 567.5,360.5C 571.222,359.68 573.555,361.013 574.5,364.5 Z"/></g>
<g><path style="opacity:1" fill="#02702e" d="M 203.5,350.5 C 204.657,354.976 206.99,358.642 210.5,361.5C 212.943,365.085 215.943,368.251 219.5,371C 224.526,373.38 229.526,375.714 234.5,378C 242.395,379.057 250.062,378.557 257.5,376.5C 256.498,380.003 254.831,383.17 252.5,386C 240.659,388.499 229.992,386.166 220.5,379C 214.785,373.554 209.785,367.554 205.5,361C 204.072,360.421 202.738,360.588 201.5,361.5C 201.023,358.345 200.023,355.345 198.5,352.5C 199.583,352.539 200.583,352.873 201.5,353.5C 202.176,352.398 202.842,351.398 203.5,350.5 Z"/></g>
<g><path style="opacity:1" fill="#506a74" d="M 391.5,362.5 C 387.382,363.955 383.049,364.955 378.5,365.5C 379.681,363.933 381.347,363.099 383.5,363C 386.146,362.503 388.813,362.336 391.5,362.5 Z"/></g>
<g><path style="opacity:1" fill="#697f88" d="M 376.5,365.5 C 374.967,367.245 372.967,368.245 370.5,368.5C 372.033,366.755 374.033,365.755 376.5,365.5 Z"/></g>
<g><path style="opacity:1" fill="#25884a" d="M 574.5,364.5 C 576.385,366.795 576.885,369.462 576,372.5C 573.959,373.423 571.792,373.756 569.5,373.5C 569.007,371.194 568.674,368.861 568.5,366.5C 570.379,367.341 572.379,367.675 574.5,367.5C 574.5,366.5 574.5,365.5 574.5,364.5 Z"/></g>
<g><path style="opacity:1" fill="#016f2d" d="M 201.5,363.5 C 201.508,366.545 201.841,369.545 202.5,372.5C 201.363,381.124 196.696,386.791 188.5,389.5C 183.384,389.569 178.384,388.902 173.5,387.5C 169.206,385.857 165.873,383.19 163.5,379.5C 166.833,379.5 170.167,379.5 173.5,379.5C 175.199,379.34 176.866,379.506 178.5,380C 182.267,383.53 186.601,384.696 191.5,383.5C 195.483,380.02 198.483,375.854 200.5,371C 200.011,369.862 199.678,368.695 199.5,367.5C 200.167,366.167 200.833,364.833 201.5,363.5 Z"/></g>
<g><path style="opacity:1" fill="#008f34" d="M 199.5,367.5 C 199.678,368.695 200.011,369.862 200.5,371C 198.483,375.854 195.483,380.02 191.5,383.5C 186.601,384.696 182.267,383.53 178.5,380C 176.866,379.506 175.199,379.34 173.5,379.5C 178.208,378.125 183.041,376.791 188,375.5C 191.994,372.997 195.827,370.33 199.5,367.5 Z"/></g>
<g><path style="opacity:1" fill="#194342" d="M 459.5,351.5 C 459.573,353.027 458.906,354.027 457.5,354.5C 451.09,355.291 445.923,358.291 442,363.5C 433.631,379.891 437.464,392.557 453.5,401.5C 464.29,405.89 475.624,407.556 487.5,406.5C 487.5,400.167 487.5,393.833 487.5,387.5C 488.85,385.317 490.684,383.65 493,382.5C 497.404,384.898 501.238,388.065 504.5,392C 505.745,392.791 507.078,393.291 508.5,393.5C 509.842,394.793 511.509,395.626 513.5,396C 521.012,396.822 528.345,396.655 535.5,395.5C 536.448,394.022 537.781,393.022 539.5,392.5C 542.016,392.245 544.35,391.411 546.5,390C 551.337,386.342 553.67,381.509 553.5,375.5C 556.269,388.105 551.269,395.939 538.5,399C 528.781,399.859 519.115,399.526 509.5,398C 502.528,396.716 497.862,392.883 495.5,386.5C 493.5,386.5 491.5,386.5 489.5,386.5C 489.273,392.702 489.606,398.869 490.5,405C 489.568,407.76 487.568,409.093 484.5,409C 461.882,412.602 445.382,404.436 435,384.5C 432.531,371.942 436.364,361.775 446.5,354C 450.794,352.857 455.127,352.023 459.5,351.5 Z"/></g>
<g><path style="opacity:1" fill="#70868e" d="M 405.5,385.5 C 400.13,385.392 394.797,385.725 389.5,386.5C 389.918,385.778 390.584,385.278 391.5,385C 396.352,384.185 401.019,384.352 405.5,385.5 Z"/></g>
<g><path style="opacity:1" fill="#035032" d="M 173.5,387.5 C 178.384,388.902 183.384,389.569 188.5,389.5C 183.224,391.138 178.224,390.472 173.5,387.5 Z"/></g>
<g><path style="opacity:1" fill="#0d5e36" d="M 508.5,393.5 C 517.383,395.262 526.383,395.928 535.5,395.5C 528.345,396.655 521.012,396.822 513.5,396C 511.509,395.626 509.842,394.793 508.5,393.5 Z"/></g>
<g><path style="opacity:1" fill="#0d6035" d="M 487.5,387.5 C 487.5,393.833 487.5,400.167 487.5,406.5C 475.624,407.556 464.29,405.89 453.5,401.5C 464.344,403.9 475.344,405.234 486.5,405.5C 486.177,399.31 486.51,393.31 487.5,387.5 Z"/></g>
<g><path style="opacity:1" fill="#6c838b" d="M 162.5,407.5 C 165.855,407.69 168.855,408.69 171.5,410.5C 168.084,410.472 165.084,409.472 162.5,407.5 Z"/></g>
<g><path style="opacity:1" fill="#83969d" d="M 507.5,418.5 C 508.449,417.848 509.615,417.514 511,417.5C 522.865,419.806 534.698,419.806 546.5,417.5C 546.082,418.222 545.416,418.722 544.5,419C 532.146,420.907 519.813,420.74 507.5,418.5 Z"/></g>
<g><path style="opacity:1" fill="#8ea0a7" d="M 267.5,426.5 C 263.37,429.324 258.703,430.991 253.5,431.5C 257.94,429.462 262.607,427.796 267.5,426.5 Z"/></g>
<g><path style="opacity:1" fill="#728890" d="M 224.5,429.5 C 227.152,429.41 229.485,430.076 231.5,431.5C 228.848,431.59 226.515,430.924 224.5,429.5 Z"/></g>
<g><path style="opacity:1" fill="#778c94" d="M 447.5,431.5 C 450.152,431.41 452.485,432.076 454.5,433.5C 451.848,433.59 449.515,432.924 447.5,431.5 Z"/></g>
<g><path style="opacity:1" fill="#6e848d" d="M 320.5,432.5 C 316.569,433.311 312.569,434.311 308.5,435.5C 309.347,434.034 310.68,433.2 312.5,433C 315.146,432.503 317.813,432.336 320.5,432.5 Z"/></g>
<g><path style="opacity:1" fill="#6b828b" d="M 483.5,432.5 C 478.084,434.029 472.417,434.695 466.5,434.5C 462.319,434.499 458.319,434.166 454.5,433.5C 464.191,433.658 473.857,433.325 483.5,432.5 Z"/></g>
<g><path style="opacity:1" fill="#58797a" d="M 354.5,448.5 C 346.309,448.194 338.309,449.194 330.5,451.5C 332.958,449.287 335.958,448.121 339.5,448C 344.684,447.184 349.684,447.35 354.5,448.5 Z"/></g>
<g><path style="opacity:1" fill="#e3efea" d="M 354.5,448.5 C 362.869,450.352 370.703,453.686 378,458.5C 378.791,459.745 379.291,461.078 379.5,462.5C 373.752,460.638 368.085,458.471 362.5,456C 360.866,455.506 359.199,455.34 357.5,455.5C 350.345,454.345 343.012,454.178 335.5,455C 332.719,455.522 330.385,456.689 328.5,458.5C 326.302,458.12 324.635,458.787 323.5,460.5C 322.662,460.842 322.328,461.508 322.5,462.5C 317.845,463.147 313.845,465.147 310.5,468.5C 309.264,469.246 307.93,469.579 306.5,469.5C 308.825,463.001 313.158,458.168 319.5,455C 322.993,453.251 326.66,452.085 330.5,451.5C 338.309,449.194 346.309,448.194 354.5,448.5 Z"/></g>
<g><path style="opacity:1" fill="#8b9da4" d="M 285.5,454.5 C 279.88,455.117 274.213,456.117 268.5,457.5C 269.347,456.034 270.68,455.2 272.5,455C 276.821,454.501 281.154,454.334 285.5,454.5 Z"/></g>
<g><path style="opacity:1" fill="#82eca4" d="M 357.5,455.5 C 347.594,454.762 337.928,455.762 328.5,458.5C 330.385,456.689 332.719,455.522 335.5,455C 343.012,454.178 350.345,454.345 357.5,455.5 Z"/></g>
<g><path style="opacity:1" fill="#1edc5c" d="M 357.5,455.5 C 359.199,455.34 360.866,455.506 362.5,456C 368.085,458.471 373.752,460.638 379.5,462.5C 381.882,463.351 383.882,464.684 385.5,466.5C 385.427,468.027 386.094,469.027 387.5,469.5C 386.666,470.748 385.333,471.415 383.5,471.5C 382.167,471.333 380.833,471.167 379.5,471C 372.797,468.501 366.13,466.334 359.5,464.5C 347.343,463.306 335.343,461.972 323.5,460.5C 324.635,458.787 326.302,458.12 328.5,458.5C 337.928,455.762 347.594,454.762 357.5,455.5 Z"/></g>
<g><path style="opacity:1" fill="#85989f" d="M 411.5,455.5 C 417.842,455.334 424.175,455.5 430.5,456C 431.416,456.278 432.082,456.778 432.5,457.5C 425.337,457.036 418.337,456.369 411.5,455.5 Z"/></g>
<g><path style="opacity:1" fill="#016f2d" d="M 322.5,462.5 C 334.67,463.348 347.004,464.015 359.5,464.5C 366.13,466.334 372.797,468.501 379.5,471C 380.833,471.167 382.167,471.333 383.5,471.5C 385.333,471.415 386.666,470.748 387.5,469.5C 391.805,476.001 397.972,478.335 406,476.5C 411.602,476.28 417.102,475.614 422.5,474.5C 426.061,476.048 429.394,478.048 432.5,480.5C 434.086,482.173 434.753,484.173 434.5,486.5C 380.331,486.832 326.331,486.499 272.5,485.5C 272.933,482.715 274.266,480.381 276.5,478.5C 279.036,478.156 281.203,477.156 283,475.5C 288.446,476.806 293.946,476.806 299.5,475.5C 300.549,473.784 301.882,472.451 303.5,471.5C 304.222,470.449 305.222,469.782 306.5,469.5C 307.93,469.579 309.264,469.246 310.5,468.5C 313.845,465.147 317.845,463.147 322.5,462.5 Z"/></g>
<g><path style="opacity:1" fill="#0faa45" d="M 323.5,460.5 C 335.343,461.972 347.343,463.306 359.5,464.5C 347.004,464.015 334.67,463.348 322.5,462.5C 322.328,461.508 322.662,460.842 323.5,460.5 Z"/></g>
<g><path style="opacity:1" fill="#194941" d="M 385.5,466.5 C 388.312,468.076 390.978,469.91 393.5,472C 401.5,472.333 409.5,472.667 417.5,473C 419.382,473.198 421.048,473.698 422.5,474.5C 417.102,475.614 411.602,476.28 406,476.5C 397.972,478.335 391.805,476.001 387.5,469.5C 386.094,469.027 385.427,468.027 385.5,466.5 Z"/></g>
<g><path style="opacity:1" fill="#14503d" d="M 303.5,471.5 C 301.882,472.451 300.549,473.784 299.5,475.5C 293.946,476.806 288.446,476.806 283,475.5C 281.203,477.156 279.036,478.156 276.5,478.5C 274.266,480.381 272.933,482.715 272.5,485.5C 271.5,485.5 270.5,485.5 269.5,485.5C 269.043,480.579 271.043,477.079 275.5,475C 284.853,473.878 294.186,472.711 303.5,471.5 Z"/></g>
<g><path style="opacity:1" fill="#57707a" d="M 158.5,485.5 C 128.294,486.182 97.9609,486.848 67.5,487.5C 67.6107,486.883 67.944,486.383 68.5,486C 98.4981,485.5 128.498,485.333 158.5,485.5 Z"/></g>
<g><path style="opacity:1" fill="#e6ebec" d="M 87.5,505.5 C 275.167,505.333 462.834,505.5 650.5,506C 651.833,510 651.833,514 650.5,518C 463.166,518.833 275.832,518.667 88.5,517.5C 87.5672,513.571 87.2338,509.571 87.5,505.5 Z"/></g>
<g><path style="opacity:1" fill="#7d9199" d="M 291.5,531.5 C 255.158,531.281 218.825,531.615 182.5,532.5C 185.977,531.677 189.644,531.177 193.5,531C 226.336,530.169 259.003,530.336 291.5,531.5 Z"/></g>
<g><path style="opacity:1" fill="#f6fafa" d="M 291.5,531.5 C 294.5,531.5 297.5,531.5 300.5,531.5C 306.301,532.682 312.301,533.348 318.5,533.5C 319.833,533.5 321.167,533.5 322.5,533.5C 329.264,535.235 336.264,536.235 343.5,536.5C 350.593,538.462 357.927,539.795 365.5,540.5C 372.226,542.562 379.226,543.896 386.5,544.5C 391.456,545.744 396.456,546.744 401.5,547.5C 408.238,549.563 415.238,550.897 422.5,551.5C 422.833,551.5 423.167,551.5 423.5,551.5C 431.538,554.041 439.871,555.708 448.5,556.5C 448.833,556.5 449.167,556.5 449.5,556.5C 454.248,558.138 459.248,559.138 464.5,559.5C 471.264,561.235 478.264,562.235 485.5,562.5C 490.83,564.667 496.497,565.667 502.5,565.5C 502.833,565.5 503.167,565.5 503.5,565.5C 510.601,567.228 517.934,568.228 525.5,568.5C 537.739,570.571 550.072,571.905 562.5,572.5C 566.567,574.054 570.9,574.72 575.5,574.5C 580.326,574.166 584.826,575.166 589,577.5C 589.311,578.742 588.811,579.742 587.5,580.5C 585.045,581.355 582.712,582.355 580.5,583.5C 578.033,583.755 576.033,584.755 574.5,586.5C 570.12,587.293 565.787,588.293 561.5,589.5C 558.848,589.41 556.515,590.076 554.5,591.5C 542.672,594.119 530.672,595.786 518.5,596.5C 509.993,596.86 501.66,597.527 493.5,598.5C 477.167,598.5 460.833,598.5 444.5,598.5C 440.081,597.028 435.414,596.362 430.5,596.5C 424.301,596.348 418.301,595.682 412.5,594.5C 404.41,592.42 396.076,591.087 387.5,590.5C 383.742,590.152 380.076,589.485 376.5,588.5C 374.485,587.076 372.152,586.41 369.5,586.5C 364.674,586.11 360.007,585.11 355.5,583.5C 353.485,582.076 351.152,581.41 348.5,581.5C 345.921,581.606 343.588,580.939 341.5,579.5C 339.485,578.076 337.152,577.41 334.5,577.5C 331.495,575.723 328.162,574.723 324.5,574.5C 317.501,571.391 310.168,569.057 302.5,567.5C 297.5,565.057 292.166,563.39 286.5,562.5C 282.673,561.733 279.006,560.733 275.5,559.5C 273.485,558.076 271.152,557.41 268.5,557.5C 264.575,557.57 260.909,556.903 257.5,555.5C 250.189,552.88 242.522,551.547 234.5,551.5C 231.236,550.676 227.902,550.342 224.5,550.5C 217.391,548.986 210.058,548.153 202.5,548C 190.333,547.833 178.167,547.667 166,547.5C 149.303,547.284 132.803,547.95 116.5,549.5C 113.713,550.477 110.713,550.81 107.5,550.5C 107.5,549.5 107.5,548.5 107.5,547.5C 112.165,546.943 116.498,545.61 120.5,543.5C 125.559,542.319 130.559,540.986 135.5,539.5C 138.152,539.59 140.485,538.924 142.5,537.5C 147.816,536.704 153.149,536.037 158.5,535.5C 166.08,535.344 173.414,534.344 180.5,532.5C 181.167,532.5 181.833,532.5 182.5,532.5C 218.825,531.615 255.158,531.281 291.5,531.5 Z"/></g>
<g><path style="opacity:1" fill="#657d86" d="M 300.5,531.5 C 305.511,531.334 310.511,531.501 315.5,532C 316.737,532.232 317.737,532.732 318.5,533.5C 312.301,533.348 306.301,532.682 300.5,531.5 Z"/></g>
<g><path style="opacity:1" fill="#9cacb2" d="M 180.5,532.5 C 173.414,534.344 166.08,535.344 158.5,535.5C 165.601,533.772 172.934,532.772 180.5,532.5 Z"/></g>
<g><path style="opacity:1" fill="#70868f" d="M 322.5,533.5 C 329.749,533.678 336.749,534.678 343.5,536.5C 336.264,536.235 329.264,535.235 322.5,533.5 Z"/></g>
<g><path style="opacity:1" fill="#698189" d="M 343.5,536.5 C 351.166,536.702 358.499,538.035 365.5,540.5C 357.927,539.795 350.593,538.462 343.5,536.5 Z"/></g>
<g><path style="opacity:1" fill="#738991" d="M 142.5,537.5 C 140.485,538.924 138.152,539.59 135.5,539.5C 137.515,538.076 139.848,537.41 142.5,537.5 Z"/></g>
<g><path style="opacity:1" fill="#627a84" d="M 365.5,540.5 C 368.187,540.336 370.854,540.503 373.5,541C 378.046,541.849 382.379,543.015 386.5,544.5C 379.226,543.896 372.226,542.562 365.5,540.5 Z"/></g>
<g><path style="opacity:1" fill="#879aa1" d="M 120.5,543.5 C 116.498,545.61 112.165,546.943 107.5,547.5C 111.502,545.39 115.835,544.057 120.5,543.5 Z"/></g>
<g><path style="opacity:1" fill="#80959c" d="M 224.5,550.5 C 188.523,548.257 152.523,547.923 116.5,549.5C 132.803,547.95 149.303,547.284 166,547.5C 178.167,547.667 190.333,547.833 202.5,548C 210.058,548.153 217.391,548.986 224.5,550.5 Z"/></g>
<g><path style="opacity:1" fill="#657c86" d="M 401.5,547.5 C 408.862,547.573 415.862,548.907 422.5,551.5C 415.238,550.897 408.238,549.563 401.5,547.5 Z"/></g>
<g><path style="opacity:1" fill="#91a3a9" d="M 234.5,551.5 C 242.522,551.547 250.189,552.88 257.5,555.5C 249.62,554.654 241.953,553.321 234.5,551.5 Z"/></g>
<g><path style="opacity:1" fill="#5d757f" d="M 423.5,551.5 C 432.174,552.035 440.507,553.701 448.5,556.5C 439.871,555.708 431.538,554.041 423.5,551.5 Z"/></g>
<g><path style="opacity:1" fill="#58717c" d="M 449.5,556.5 C 454.894,556.124 459.894,557.124 464.5,559.5C 459.248,559.138 454.248,558.138 449.5,556.5 Z"/></g>
<g><path style="opacity:1" fill="#8b9ea5" d="M 268.5,557.5 C 271.152,557.41 273.485,558.076 275.5,559.5C 272.848,559.59 270.515,558.924 268.5,557.5 Z"/></g>
<g><path style="opacity:1" fill="#5c757f" d="M 464.5,559.5 C 471.749,559.678 478.749,560.678 485.5,562.5C 478.264,562.235 471.264,561.235 464.5,559.5 Z"/></g>
<g><path style="opacity:1" fill="#8699a0" d="M 286.5,562.5 C 292.166,563.39 297.5,565.057 302.5,567.5C 296.834,566.61 291.5,564.943 286.5,562.5 Z"/></g>
<g><path style="opacity:1" fill="#83979e" d="M 485.5,562.5 C 491.374,563.049 497.041,564.049 502.5,565.5C 496.497,565.667 490.83,564.667 485.5,562.5 Z"/></g>
<g><path style="opacity:1" fill="#6d838c" d="M 503.5,565.5 C 511.066,565.772 518.399,566.772 525.5,568.5C 517.934,568.228 510.601,567.228 503.5,565.5 Z"/></g>
<g><path style="opacity:1" fill="#8a9ca3" d="M 302.5,567.5 C 310.168,569.057 317.501,571.391 324.5,574.5C 316.832,572.943 309.499,570.609 302.5,567.5 Z"/></g>
<g><path style="opacity:1" fill="#70868f" d="M 562.5,572.5 C 567.1,572.28 571.433,572.946 575.5,574.5C 570.9,574.72 566.567,574.054 562.5,572.5 Z"/></g>
<g><path style="opacity:1" fill="#8ea0a7" d="M 324.5,574.5 C 328.162,574.723 331.495,575.723 334.5,577.5C 330.838,577.277 327.505,576.277 324.5,574.5 Z"/></g>
<g><path style="opacity:1" fill="#8b9ea5" d="M 334.5,577.5 C 337.152,577.41 339.485,578.076 341.5,579.5C 338.848,579.59 336.515,578.924 334.5,577.5 Z"/></g>
<g><path style="opacity:1" fill="#80949c" d="M 348.5,581.5 C 351.152,581.41 353.485,582.076 355.5,583.5C 352.848,583.59 350.515,582.924 348.5,581.5 Z"/></g>
<g><path style="opacity:1" fill="#637a84" d="M 580.5,583.5 C 578.967,585.245 576.967,586.245 574.5,586.5C 576.033,584.755 578.033,583.755 580.5,583.5 Z"/></g>
<g><path style="opacity:1" fill="#7b9098" d="M 369.5,586.5 C 372.152,586.41 374.485,587.076 376.5,588.5C 373.848,588.59 371.515,587.924 369.5,586.5 Z"/></g>
<g><path style="opacity:1" fill="#889ba2" d="M 387.5,590.5 C 396.076,591.087 404.41,592.42 412.5,594.5C 403.888,594.119 395.555,592.786 387.5,590.5 Z"/></g>
<g><path style="opacity:1" fill="#7a8f97" d="M 561.5,589.5 C 559.485,590.924 557.152,591.59 554.5,591.5C 556.515,590.076 558.848,589.41 561.5,589.5 Z"/></g>
<g><path style="opacity:1" fill="#607882" d="M 430.5,596.5 C 435.414,596.362 440.081,597.028 444.5,598.5C 439.586,598.638 434.919,597.972 430.5,596.5 Z"/></g>
<g><path style="opacity:1" fill="#889ba2" d="M 518.5,596.5 C 516.708,597.309 514.708,597.809 512.5,598C 506.175,598.5 499.842,598.666 493.5,598.5C 501.66,597.527 509.993,596.86 518.5,596.5 Z"/></g>
<g><path style="opacity:1" fill="#657d86" d="M 267.5,605.5 C 248.792,605.205 230.126,605.871 211.5,607.5C 217.238,605.866 223.238,605.033 229.5,605C 242.34,604.173 255.007,604.34 267.5,605.5 Z"/></g>
<g><path style="opacity:1" fill="#f4f7f8" d="M 267.5,605.5 C 268.167,605.5 268.833,605.5 269.5,605.5C 274.96,606.737 280.627,607.404 286.5,607.5C 296.528,609.171 306.528,610.838 316.5,612.5C 320.681,613.66 325.015,614.66 329.5,615.5C 336.093,617.482 342.76,619.148 349.5,620.5C 351.102,622.074 353.102,622.741 355.5,622.5C 357.515,623.924 359.848,624.59 362.5,624.5C 364.515,625.924 366.848,626.59 369.5,626.5C 375.499,629.276 381.833,631.276 388.5,632.5C 389.919,633.451 391.585,633.784 393.5,633.5C 395.102,635.074 397.102,635.741 399.5,635.5C 401.515,636.924 403.848,637.59 406.5,637.5C 407.167,637.5 407.833,637.5 408.5,637.5C 410.515,638.924 412.848,639.59 415.5,639.5C 421.245,641.284 427.245,642.284 433.5,642.5C 433.833,642.5 434.167,642.5 434.5,642.5C 440.196,644.561 446.196,645.561 452.5,645.5C 453.167,645.5 453.833,645.5 454.5,645.5C 464.552,647.94 474.885,648.94 485.5,648.5C 487.167,649.167 488.833,649.833 490.5,650.5C 490.611,651.117 490.944,651.617 491.5,652C 470.169,652.5 448.836,652.667 427.5,652.5C 425.833,652.5 424.167,652.5 422.5,652.5C 411.417,650.311 400.083,649.311 388.5,649.5C 388.167,649.5 387.833,649.5 387.5,649.5C 377.091,646.989 366.425,645.322 355.5,644.5C 355.167,644.5 354.833,644.5 354.5,644.5C 349.894,642.124 344.894,641.124 339.5,641.5C 327.022,639.804 314.689,637.471 302.5,634.5C 289.812,631.4 276.812,629.4 263.5,628.5C 262.833,628.5 262.167,628.5 261.5,628.5C 260.737,627.732 259.737,627.232 258.5,627C 253.177,626.501 247.844,626.334 242.5,626.5C 240.369,625.686 238.036,625.186 235.5,625C 228.174,624.5 220.841,624.334 213.5,624.5C 207.5,624.5 201.5,624.5 195.5,624.5C 186.617,623.635 177.617,622.635 168.5,621.5C 165.05,622.244 163.384,620.91 163.5,617.5C 175.206,613.7 187.206,611.033 199.5,609.5C 203.04,609.247 206.373,608.581 209.5,607.5C 210.167,607.5 210.833,607.5 211.5,607.5C 230.126,605.871 248.792,605.205 267.5,605.5 Z"/></g>
<g><path style="opacity:1" fill="#6d848c" d="M 269.5,605.5 C 275.43,605.128 281.097,605.795 286.5,607.5C 280.627,607.404 274.96,606.737 269.5,605.5 Z"/></g>
<g><path style="opacity:1" fill="#80949b" d="M 209.5,607.5 C 206.373,608.581 203.04,609.247 199.5,609.5C 199.918,608.778 200.584,608.278 201.5,608C 204.146,607.503 206.813,607.336 209.5,607.5 Z"/></g>
<g><path style="opacity:1" fill="#4f6973" d="M 316.5,612.5 C 321.312,611.965 325.645,612.965 329.5,615.5C 325.015,614.66 320.681,613.66 316.5,612.5 Z"/></g>
<g><path style="opacity:1" fill="#627a84" d="M 349.5,620.5 C 351.898,620.259 353.898,620.926 355.5,622.5C 353.102,622.741 351.102,622.074 349.5,620.5 Z"/></g>
<g><path style="opacity:1" fill="#718790" d="M 355.5,622.5 C 358.152,622.41 360.485,623.076 362.5,624.5C 359.848,624.59 357.515,623.924 355.5,622.5 Z"/></g>
<g><path style="opacity:1" fill="#7f939b" d="M 168.5,621.5 C 177.617,622.635 186.617,623.635 195.5,624.5C 186.184,625.029 177.184,624.029 168.5,621.5 Z"/></g>
<g><path style="opacity:1" fill="#98a9af" d="M 213.5,624.5 C 220.841,624.334 228.174,624.5 235.5,625C 238.036,625.186 240.369,625.686 242.5,626.5C 232.665,626.083 222.999,625.416 213.5,624.5 Z"/></g>
<g><path style="opacity:1" fill="#748991" d="M 362.5,624.5 C 365.152,624.41 367.485,625.076 369.5,626.5C 366.848,626.59 364.515,625.924 362.5,624.5 Z"/></g>
<g><path style="opacity:1" fill="#94a5ab" d="M 242.5,626.5 C 247.844,626.334 253.177,626.501 258.5,627C 259.737,627.232 260.737,627.732 261.5,628.5C 254.974,628.303 248.641,627.636 242.5,626.5 Z"/></g>
<g><path style="opacity:1" fill="#718790" d="M 369.5,626.5 C 376.167,627.724 382.501,629.724 388.5,632.5C 381.833,631.276 375.499,629.276 369.5,626.5 Z"/></g>
<g><path style="opacity:1" fill="#758b93" d="M 263.5,628.5 C 276.812,629.4 289.812,631.4 302.5,634.5C 289.313,632.856 276.313,630.856 263.5,628.5 Z"/></g>
<g><path style="opacity:1" fill="#627a83" d="M 393.5,633.5 C 395.898,633.259 397.898,633.926 399.5,635.5C 397.102,635.741 395.102,635.074 393.5,633.5 Z"/></g>
<g><path style="opacity:1" fill="#80949b" d="M 399.5,635.5 C 402.152,635.41 404.485,636.076 406.5,637.5C 403.848,637.59 401.515,636.924 399.5,635.5 Z"/></g>
<g><path style="opacity:1" fill="#748a92" d="M 408.5,637.5 C 411.152,637.41 413.485,638.076 415.5,639.5C 412.848,639.59 410.515,638.924 408.5,637.5 Z"/></g>
<g><path style="opacity:1" fill="#627a83" d="M 415.5,639.5 C 421.755,639.716 427.755,640.716 433.5,642.5C 427.245,642.284 421.245,641.284 415.5,639.5 Z"/></g>
<g><path style="opacity:1" fill="#a2b1b7" d="M 339.5,641.5 C 344.894,641.124 349.894,642.124 354.5,644.5C 349.248,644.138 344.248,643.138 339.5,641.5 Z"/></g>
<g><path style="opacity:1" fill="#506b75" d="M 434.5,642.5 C 440.777,642.579 446.777,643.579 452.5,645.5C 446.196,645.561 440.196,644.561 434.5,642.5 Z"/></g>
<g><path style="opacity:1" fill="#95a6ac" d="M 355.5,644.5 C 366.425,645.322 377.091,646.989 387.5,649.5C 376.575,648.678 365.909,647.011 355.5,644.5 Z"/></g>
<g><path style="opacity:1" fill="#607982" d="M 454.5,645.5 C 464.974,646.546 475.307,647.546 485.5,648.5C 474.885,648.94 464.552,647.94 454.5,645.5 Z"/></g>
<g><path style="opacity:1" fill="#a3b2b7" d="M 388.5,649.5 C 400.083,649.311 411.417,650.311 422.5,652.5C 410.926,652.601 399.592,651.601 388.5,649.5 Z"/></g>
<g><path style="opacity:1" fill="#9babb1" d="M 490.5,650.5 C 492.924,650.192 495.257,650.526 497.5,651.5C 496.271,652.281 494.938,652.781 493.5,653C 471.329,653.83 449.329,653.663 427.5,652.5C 448.836,652.667 470.169,652.5 491.5,652C 490.944,651.617 490.611,651.117 490.5,650.5 Z"/></g>
<g><path style="opacity:1" fill="#8fa0a7" d="M 512.5,678.5 C 510.967,680.245 508.967,681.245 506.5,681.5C 508.033,679.755 510.033,678.755 512.5,678.5 Z"/></g>
<g><path style="opacity:1" fill="#5d757f" d="M 231.5,680.5 C 235.358,680.77 238.691,682.103 241.5,684.5C 237.851,683.733 234.518,682.4 231.5,680.5 Z"/></g>
<g><path style="opacity:1" fill="#899ba2" d="M 506.5,681.5 C 502.06,683.538 497.393,685.204 492.5,686.5C 496.63,683.676 501.297,682.009 506.5,681.5 Z"/></g>
<g><path style="opacity:1" fill="#6a818a" d="M 242.5,684.5 C 249.767,686.256 256.767,688.589 263.5,691.5C 256.085,690.14 249.085,687.806 242.5,684.5 Z"/></g>
<g><path style="opacity:1" fill="#657c85" d="M 268.5,692.5 C 271.855,692.69 274.855,693.69 277.5,695.5C 274.084,695.472 271.084,694.472 268.5,692.5 Z"/></g>
<g><path style="opacity:1" fill="#a2b1b6" d="M 460.5,695.5 C 457.191,697.37 453.525,698.37 449.5,698.5C 449.611,697.883 449.944,697.383 450.5,697C 453.827,696.39 457.161,695.89 460.5,695.5 Z"/></g>
<g><path style="opacity:1" fill="#80949b" d="M 287.5,697.5 C 290.152,697.41 292.485,698.076 294.5,699.5C 291.848,699.59 289.515,698.924 287.5,697.5 Z"/></g>
<g><path style="opacity:1" fill="#647c85" d="M 300.5,700.5 C 307.749,700.678 314.749,701.678 321.5,703.5C 314.264,703.235 307.264,702.235 300.5,700.5 Z"/></g>
<g><path style="opacity:1" fill="#738991" d="M 440.5,699.5 C 433.774,701.562 426.774,702.896 419.5,703.5C 426.226,701.438 433.226,700.104 440.5,699.5 Z"/></g>
<g><path style="opacity:1" fill="#728890" d="M 414.5,703.5 C 410.081,704.972 405.414,705.638 400.5,705.5C 404.919,704.028 409.586,703.362 414.5,703.5 Z"/></g>
<g><path style="opacity:1" fill="#58717b" d="M 322.5,703.5 C 348.128,705.265 373.794,705.932 399.5,705.5C 379.004,706.663 358.337,706.829 337.5,706C 332.234,705.911 327.234,705.077 322.5,703.5 Z"/></g>
</svg>
